<?xml version="1.0" encoding="utf-8"?>
<!-- Generator: Adobe Illustrator 23.1.1, SVG Export Plug-In . SVG Version: 6.00 Build 0)  -->
<svg version="1.1" id="Layer_1" xmlns="http://www.w3.org/2000/svg" xmlns:xlink="http://www.w3.org/1999/xlink" x="0px" y="0px"
	 viewBox="0 0 600 600" style="enable-background:new 0 0 600 600;" xml:space="preserve">
<style type="text/css">
	.st0{fill:#009EE3;}
</style>
<path class="st0" d="M259.7,378.9c69.4,49.1,165.4,32.7,214.5-36.7c49.1-69.3,32.7-165.4-36.7-214.5
	c-69.4-49.1-165.4-32.7-214.5,36.7c-35,49.5-37.7,114.9-6.9,167.2L103.4,445c-12.9,12.3-13.4,32.6-1.2,45.5
	c12.2,12.9,32.6,13.4,45.5,1.2c0.4-0.4,0.8-0.8,1.2-1.2L259.7,378.9z M249.2,253.2c0-54.8,44.4-99.2,99.2-99.3
	c54.8,0,99.2,44.4,99.3,99.2c0,54.7-44.3,99.1-99,99.2C293.8,352.5,249.3,308.1,249.2,253.2L249.2,253.2z M249.2,253.2"/>
</svg>
